<svg id="Component_149_1" data-name="Component 149 – 1" xmlns="http://www.w3.org/2000/svg" width="576" height="576" viewBox="0 0 576 576">
  <g id="Ellipse_302" data-name="Ellipse 302" fill="none" stroke="#fff" stroke-width="8">
    <circle cx="288" cy="288" r="288" stroke="none"/>
    <circle cx="288" cy="288" r="284" fill="none"/>
  </g>
  <g id="noun_movie_ticket_1814256" data-name="noun_movie ticket_1814256" transform="translate(193.664 90.834)">
    <g id="Group_145" data-name="Group 145" transform="translate(0)">
      <path id="Path_1385" data-name="Path 1385" d="M9,981.362v25h2.083a18.751,18.751,0,0,1,0,37.5H9v25H179.84v-25h-2.083a18.751,18.751,0,0,1,0-37.5h2.083v-25H9Zm4.167,4.167H129.838v10.417H134V985.529h41.668v17.058a22.561,22.561,0,0,0,0,44.989V1064.7H134v-10.417h-4.167V1064.7H13.167v-17.123a22.561,22.561,0,0,0,0-44.989V985.529Zm68.753,10.417-7.813,19.4-21.355,1.3,16.472,13.282-5.339,20.183,18.034-11.2,18.034,11.2-5.339-20.183,16.472-13.282-21.355-1.3Zm47.919,8.334v16.667H134V1004.28Zm0,25v16.667H134v-16.667Z" transform="translate(-9 -981.362)" fill="#fff"/>
    </g>
  </g>
  <g id="Group_152" data-name="Group 152" transform="translate(167.629 189.355)">
    <path id="Path_1401" data-name="Path 1401" d="M116.874,44.981c-1.734-2.119-1.734-2.89-1.927-4.046a7.282,7.282,0,0,0-.963-3.853,1.06,1.06,0,0,0-.963-.578h-6.358l2.89-17.147a1.158,1.158,0,0,0-.193-.771,1,1,0,0,0-.771-.385h-3.853c-.385,0-.963.385-.963.771l-2.89,17.34H65.047a1.06,1.06,0,0,0-.963.578,13.746,13.746,0,0,0-.963,3.853c0,1.156,0,1.927-1.927,4.046-.193.193-.385.771-.193.963a1.06,1.06,0,0,0,.963.578h2.89l3.468,33.524L23.046,62.9a2.106,2.106,0,0,0-2.89,1.734C19.77,68.486,18.229,81.2,18.036,86.4a2.369,2.369,0,0,0,1.349,2.119l7.707,2.89H20.156a2.442,2.442,0,0,0-1.734.771,2.24,2.24,0,0,0-.385,1.927c1.156,4.817,4.046,16.377,5.587,21.193a2.254,2.254,0,0,0,2.119,1.541h31.4a2.257,2.257,0,0,0,2.119-1.734l2.89-14.065a.189.189,0,0,1,.193-.193h1.927l-.385,2.5a2.093,2.093,0,0,0,1.349,2.312l5.78,2.119,1.541,7.321a2.257,2.257,0,0,0,2.119,1.734h31.4A2.254,2.254,0,0,0,108.2,115.3c1.541-4.624,4.431-16.377,5.587-21.193a2.373,2.373,0,0,0-.385-1.927,1.878,1.878,0,0,0-1.734-.771h-3.083l4.624-44.7h2.89a1.06,1.06,0,0,0,.963-.578A2.444,2.444,0,0,0,116.874,44.981ZM105.507,20.512h1.927l-2.7,16.184h-1.927ZM20.348,86.982a.189.189,0,0,1-.193-.193c.193-5.009,1.734-17.725,2.119-21.579,0-.193.193-.193.385-.193L94.139,91.8H87.011L74.295,86.982c-.193-.193-.578,0-.771,0a1,1,0,0,0-.385.771L72.561,91.8H67.744l.385-2.119a2.093,2.093,0,0,0-1.349-2.312l-6.358-2.312c-.193,0-.578-.193-.771-.193a2.675,2.675,0,0,0-1.927.963l-3.661,5.78H48.478l6.743-10.6a1.158,1.158,0,0,0,.193-.771.868.868,0,0,0-.578-.578L27.477,69.449c-.193-.193-.578,0-.771,0a1,1,0,0,0-.385.771c0,.385-1.156,11.753-1.156,15.221a1.06,1.06,0,0,0,.578.963L40.386,91.8H33.257ZM81.423,91.8H74.295l.385-2.5Zm-15.8,0H56.377l3.083-4.817a.673.673,0,0,1,.385-.193L66.01,89.1a.189.189,0,0,1,.193.193Zm-20.23,0L26.706,84.862V81.78a3.279,3.279,0,0,1,.193-1.349v-.385a5.334,5.334,0,0,1,.193-1.734v-.385c0-.578.193-1.156.193-1.541h0c0-.578.193-1.156.193-1.734v-.193a15.74,15.74,0,0,0,.193-2.7L52.909,81.2,46.166,91.8Zm20.423,12.331a.189.189,0,0,1-.193-.193l.385-2.7h3.083c.193,0,.193,0,.193.193l.963,4.431Zm46.047-10.4v.193c-1.156,4.817-4.046,16.377-5.587,21a.189.189,0,0,1-.193.193H74.68c-.193,0-.193,0-.193-.193L71.6,100.854a2.257,2.257,0,0,0-2.119-1.734H62.928a2.257,2.257,0,0,0-2.119,1.734l-2.89,14.065a.189.189,0,0,1-.193.193H25.936c-.193,0-.193,0-.193-.193-1.541-4.817-4.624-17.34-5.587-21v-.193a.189.189,0,0,1,.193-.193h91.324A.189.189,0,0,0,111.865,93.725Zm-5.2-1.927H99.727L70.634,81.009,66.974,46.715h44.313ZM64.276,44.788a5.333,5.333,0,0,0,1.156-3.468,4.614,4.614,0,0,1,.578-2.5h46.625a21.484,21.484,0,0,1,.578,2.5,5.333,5.333,0,0,0,1.156,3.468Z" transform="translate(-17.961 -18.2)" fill="#fff"/>
    <path id="Path_1402" data-name="Path 1402" d="M25.846,74.5a1.06,1.06,0,0,0,.963.578H48.966a1.28,1.28,0,0,0,.963-.771l3.083-14.45a1.158,1.158,0,0,0-.193-.771,1,1,0,0,0-.771-.385H22.763a1,1,0,0,0-.771.385,1.158,1.158,0,0,0-.193.771C21.8,60.241,24.69,71.223,25.846,74.5ZM50.7,60.627,48,73.15H27.58c-.963-2.89-2.89-9.826-3.468-12.523H50.7Z" transform="translate(-14.403 19.33)" fill="#fff"/>
    <path id="Path_1403" data-name="Path 1403" d="M51.846,75.077H74a1.06,1.06,0,0,0,.963-.578c1.156-3.083,4.046-14.257,4.239-14.643a1.159,1.159,0,0,0-.193-.771,1,1,0,0,0-.771-.385H48.763a1,1,0,0,0-.771.385,1.158,1.158,0,0,0-.193.771l3.083,14.45A1.28,1.28,0,0,0,51.846,75.077Zm25.047-14.45c-.771,2.7-2.5,9.633-3.468,12.523H52.617l-2.7-12.523Z" transform="translate(9.69 19.33)" fill="#fff"/>
  </g>
  <g id="Group_4239" data-name="Group 4239" transform="translate(288 189.355)">
    <path id="Path_1404" data-name="Path 1404" d="M54.695,104.554a44.7,44.7,0,0,1,0-89.39,1.821,1.821,0,0,1,0,3.642A41.053,41.053,0,1,0,95.747,59.859a1.821,1.821,0,1,1,3.642,0A44.745,44.745,0,0,1,54.695,104.554Z" transform="translate(-10 -5.909)" fill="#fff"/>
    <path id="Path_1405" data-name="Path 1405" d="M88.232,13.968l-4.705.006L74.913,5.647c-1.923-1.859-3.694.7-2.432,2.516l4.362,5.821-8.314.011-1.145-1.169c-2.27-2.356-2.344.152-2.3,2.025v1.8c0,1.917,2.033,1.947,3.058,1.975l8.643.008-4.3,5.742c-1.262,1.819.509,4.374,2.432,2.516l8.536-8.252,5.15.005C94.926,18.645,91.527,13.968,88.232,13.968Z" transform="translate(-14.924 -5.001)" fill="#fff"/>
    <path id="Path_1406" data-name="Path 1406" d="M48.692,45.347A18.3,18.3,0,0,0,38.546,65.39a10.915,10.915,0,0,1,10.644-4.2A10.9,10.9,0,0,1,60.6,55.8,10.9,10.9,0,0,1,70.61,50.257,18.287,18.287,0,0,0,48.692,45.347Z" transform="translate(-12.522 -8.451)" fill="#fff"/>
    <path id="Path_1407" data-name="Path 1407" d="M57.716,58.94a9.3,9.3,0,0,0-1.509.554,9.2,9.2,0,0,0-1.388.814l6,12.723h3.543Z" transform="translate(-14.007 -9.823)" fill="#fff"/>
    <path id="Path_1408" data-name="Path 1408" d="M77.219,63.689a2.1,2.1,0,0,0-2.895.646L67.481,75.1H39.031l-2,6.71h4.377l.751-2.515h25.3l1.525,2.515h4.907L71.1,77.227l6.763-10.644A2.1,2.1,0,0,0,77.219,63.689Z" transform="translate(-12.417 -10.219)" fill="#fff"/>
  </g>
  <text id="Fun_Entertainment_" data-name="Fun &amp; 
Entertainment
" transform="translate(293.695 391.5)" fill="#fff" font-size="54" font-family="Metropolis-Medium, Metropolis" font-weight="500"><tspan x="-82.62" y="0">Fun &amp; </tspan><tspan x="-185.49" y="76">Entertainment</tspan><tspan x="0" y="152"></tspan></text>
  <g id="Group_4443" data-name="Group 4443" transform="translate(3563 -2912)" opacity="0">
    <g id="Group_4442" data-name="Group 4442" transform="translate(-1492 2695)">
      <circle id="Ellipse_304" data-name="Ellipse 304" cx="288" cy="288" r="288" transform="translate(-2071 217)" fill="#fff"/>
      <text id="Pay_for_Events_Movies_Holidays" data-name="Pay for Events, Movies 
&amp; Holidays" transform="translate(-1776 469)" font-size="37" font-family="Metropolis-Bold, Metropolis" font-weight="700"><tspan x="-211.696" y="0">Pay for Events, Movies </tspan><tspan x="-96.644" y="78">&amp; Holidays</tspan></text>
      <rect id="BG" width="257.694" height="96.626" rx="12" transform="translate(-1917.13 601.961)" fill="#0aa114"/>
      <text id="Try_it_now_" data-name="Try it now
" transform="translate(-1802 661)" fill="#fff" font-size="29" font-family="Metropolis-SemiBold, Metropolis" font-weight="600" letter-spacing="-0.015em"><tspan x="-69.107" y="0">Try it now</tspan><tspan x="0" y="15"></tspan></text>
      <g id="Group_4435" data-name="Group 4435" transform="translate(-1739.134 642.081)">
        <path id="Path_3959" data-name="Path 3959" d="M0,0,10.356,12.547,21.907,0" transform="matrix(-0.017, -1, 1, -0.017, 18.255, 22.123)" fill="none" stroke="#fff" stroke-linecap="round" stroke-width="4"/>
      </g>
    </g>
  </g>
</svg>
