<svg id="Group_4045" data-name="Group 4045" xmlns="http://www.w3.org/2000/svg" width="72.651" height="72.65" viewBox="0 0 72.651 72.65">
  <ellipse id="Ellipse_28" data-name="Ellipse 28" cx="36.325" cy="36.325" rx="36.325" ry="36.325" transform="translate(0)" fill="#78430a"/>
  <g id="Group_114" data-name="Group 114" transform="translate(14.74 12.398)">
    <g id="Group_111" data-name="Group 111" transform="translate(0 0)">
      <path id="Path_422" data-name="Path 422" d="M2962.113,569.052a2.531,2.531,0,1,0,2.531,2.531A2.531,2.531,0,0,0,2962.113,569.052Z" transform="translate(-2929.099 -561.344)" fill="#f2f3f4"/>
      <path id="Path_423" data-name="Path 423" d="M2532.3,642.494a10.631,10.631,0,1,0,10.631,10.631A10.644,10.644,0,0,0,2532.3,642.494Zm0,17.442a6.81,6.81,0,1,1,6.81-6.81A6.818,6.818,0,0,1,2532.3,659.936Z" transform="translate(-2510.534 -631.54)" fill="#f2f3f4"/>
      <path id="Path_424" data-name="Path 424" d="M2300,437.8h-17.236a12.981,12.981,0,0,1-12.967-12.967V407.6a12.982,12.982,0,0,1,12.967-12.967H2300a12.982,12.982,0,0,1,12.968,12.967v17.236A12.982,12.982,0,0,1,2300,437.8Zm-17.236-39.109a8.915,8.915,0,0,0-8.906,8.905v17.236a8.915,8.915,0,0,0,8.906,8.906H2300a8.916,8.916,0,0,0,8.906-8.906V407.6a8.916,8.916,0,0,0-8.906-8.905Z" transform="translate(-2269.798 -394.629)" fill="#f2f3f4"/>
    </g>
  </g>
</svg>
