<svg id="Component_148_1" data-name="Component 148 – 1" xmlns="http://www.w3.org/2000/svg" width="982" height="582" viewBox="0 0 982 582">
  <text id="Pay_Bills_" data-name="Pay Bills
" transform="translate(288 406.589)" fill="#fff" font-size="60" font-family="Metropolis-Medium, Metropolis" font-weight="500"><tspan x="-120.54" y="0">Pay Bills</tspan><tspan x="0" y="76"></tspan></text>
  <g id="Ellipse_305" data-name="Ellipse 305" fill="none" stroke="#fff" stroke-width="8">
    <circle cx="288" cy="288" r="288" stroke="none"/>
    <circle cx="288" cy="288" r="284" fill="none"/>
  </g>
  <g id="Group_4438" data-name="Group 4438" transform="translate(430)" opacity="0">
    <circle id="Ellipse_306" data-name="Ellipse 306" cx="288" cy="288" r="288" transform="translate(-427 6)" fill="#fff"/>
    <text id="Pay_for_Electiricity_Water_Airtime_Internet_" data-name="Pay for Electiricity, Water,
Airtime, Internet
" transform="translate(301 250)" font-size="39" font-family="Metropolis-Bold, Metropolis" font-weight="700"><tspan x="-250.848" y="0">Pay for Electiricity, Water,</tspan><tspan x="-157.911" y="78">Airtime, Internet</tspan><tspan x="0" y="156"></tspan></text>
    <rect id="BG" width="257.694" height="96.626" rx="12" transform="translate(151.87 377.961)" fill="#0aa114"/>
    <text id="Try_it_now_" data-name="Try it now
" transform="translate(267 437)" fill="#fff" font-size="29" font-family="Metropolis-SemiBold, Metropolis" font-weight="600" letter-spacing="-0.015em"><tspan x="-69.107" y="0">Try it now</tspan><tspan x="0" y="15"></tspan></text>
    <g id="Group_4437" data-name="Group 4437" transform="translate(329.866 418.081)">
      <path id="Path_3959" data-name="Path 3959" d="M0,0,10.356,12.547,21.907,0" transform="matrix(-0.017, -1, 1, -0.017, 18.255, 22.123)" fill="none" stroke="#fff" stroke-linecap="round" stroke-width="4"/>
    </g>
  </g>
  <g id="Group_4444" data-name="Group 4444" transform="translate(176.429 167.136)">
    <g id="Group_15" data-name="Group 15" transform="translate(0 0)">
      <g id="Group_10" data-name="Group 10" transform="translate(0)">
        <g id="Group_9" data-name="Group 9">
          <path id="Path_182" data-name="Path 182" d="M81.978,112.967a58.313,58.313,0,0,1-7.432-.472c-10.006-1.278-16.614-2.122-21.7-7.691-.424-.463-.865-.994-1.335-1.562-1.548-1.882-3.153-3.827-5.72-4.572a8.316,8.316,0,0,0-2.054-.318c-8.5-.381-27.341-.611-28.14-.62L11,97.68V42.643l47.419-.091c8.794-2.93,17.6-6.09,26.174-9.393,3.729-1.435,6.676-2.747,9.563-4.031,4.07-1.809,8.278-3.68,14.314-5.732a23.294,23.294,0,0,1,10.839-1.2,24.138,24.138,0,0,1,10.771,4.37,27.447,27.447,0,0,1,4.858,4.488c.47.538,1.026,1.151,1.662,1.852a169.324,169.324,0,0,1,22.045,30.065l4.143,7.012H124.85c-2.828,0-4.088-2.156-4.921-3.582-.327-.558-.622-1.037-.888-1.446a57.517,57.517,0,0,1-3.718,6.96c-.352.545-.7,1.083-1.058,1.614,2.4-.066,5.5-.2,9.5-.447l.781-.05c5.116-.318,12.857-.808,19.3,1.455a19.233,19.233,0,0,1,6.44,3.7l0,0a17.018,17.018,0,0,1,5.035,7.037c2.633,7.638-2.374,16.627-8.705,20.229-2.2,1.251-4.74,1.918-11.776,1.85-5.164-.048-9.4-.463-12.809-.8-5.291-.518-8.785-.86-12.273.309l-3.632,1.244c-4.576,1.537-8.5,2.726-9.638,3.048A54.781,54.781,0,0,1,81.978,112.967ZM20.3,88.5c6.39.1,17.633.288,23.848.568a17.321,17.321,0,0,1,4.236.679c5.323,1.544,8.319,5.18,10.3,7.586.361.436.695.844,1.019,1.2,2.685,2.935,6.612,3.539,16.021,4.742a48.463,48.463,0,0,0,18.214-1.1c1.09-.311,4.849-1.45,9.229-2.921l3.632-1.244c5.371-1.8,10.124-1.337,16.137-.747,3.391.334,7.236.71,11.987.754,5.929.03,6.8-.468,7.1-.636,3.167-1.8,5.446-6.406,4.51-9.118a7.859,7.859,0,0,0-2.374-3.073,10.007,10.007,0,0,0-3.4-1.927c-4.66-1.637-11.259-1.221-15.631-.947l-.683.043c-19.079,1.171-23.984.894-24.794-4.336-.32-2.129.622-3.923,2.8-5.355,2.295-1.58,3.3-3.067,5.071-5.8a34.028,34.028,0,0,0,3.863-8,5.836,5.836,0,0,1,2.3-4.6l1.124-.86,1.412-.086a9.923,9.923,0,0,1,1.764.077c4.837.586,7.752,4.628,9.375,7.289h18.961a154.357,154.357,0,0,0-16.6-21.532c-.681-.751-1.276-1.407-1.78-1.984a18.424,18.424,0,0,0-3.248-3.03,14.843,14.843,0,0,0-6.646-2.731,14,14,0,0,0-6.576.79,145.55,145.55,0,0,0-13.529,5.425c-3.019,1.342-6.1,2.713-10,4.211-8.943,3.446-18.128,6.735-27.3,9.777l-1.455.236L20.3,51.922ZM120.662,59.234v0Z" transform="translate(-11 -22)" fill="#fff"/>
        </g>
      </g>
      <g id="Group_12" data-name="Group 12" transform="translate(84.1 38.48)">
        <g id="Group_11" data-name="Group 11">
          <path id="Path_183" data-name="Path 183" d="M158.224,112.662l-119.191-.488a10.015,10.015,0,0,1-9.888-10.1l-.054-27.01,9.3-.018.054,27.019a.748.748,0,0,0,.608.815l119.191.488a.738.738,0,0,0,.592-.806V40.871a.736.736,0,0,0-.611-.806l-95.611-.49.05-9.3,95.586.49a10.014,10.014,0,0,1,9.883,10.1v61.687A10.019,10.019,0,0,1,158.224,112.662Z" transform="translate(-29.091 -30.278)" fill="#fff"/>
        </g>
      </g>
      <g id="Group_14" data-name="Group 14" transform="translate(89.496 93.054)">
        <g id="Group_13" data-name="Group 13" transform="translate(0)">
          <rect id="Rectangle_30" data-name="Rectangle 30" width="9.298" height="124.571" transform="translate(0 9.297) rotate(-89.665)" fill="#fff"/>
        </g>
      </g>
    </g>
  </g>
</svg>
