<svg id="send_money" data-name="send money" xmlns="http://www.w3.org/2000/svg" width="176.328" height="172.245" viewBox="0 0 176.328 172.245">
  <g id="Path_1254" data-name="Path 1254" fill="none">
    <path d="M25.8,0h124.72a25.82,25.82,0,0,1,25.8,25.837V146.408a25.82,25.82,0,0,1-25.8,25.837H25.8A25.82,25.82,0,0,1,0,146.408V25.837A25.82,25.82,0,0,1,25.8,0Z" stroke="none"/>
    <path d="M 25.80409240722656 4 C 22.85940551757812 4 20.00491333007812 4.576583862304688 17.31985473632812 5.71368408203125 C 14.72404479980469 6.813003540039062 12.39186096191406 8.387710571289062 10.38804626464844 10.39402770996094 C 8.3839111328125 12.40071105957031 6.810836791992188 14.73648071289062 5.712509155273438 17.33642578125 C 4.576171875 20.02647399902344 3.999984741210938 22.88636779785156 3.999984741210938 25.83668518066406 L 3.999984741210938 146.407958984375 C 3.999984741210938 149.3582763671875 4.576171875 152.2181701660156 5.712509155273438 154.9082183837891 C 6.810836791992188 157.5081634521484 8.3839111328125 159.8439331054688 10.38804626464844 161.8506164550781 C 12.39186096191406 163.85693359375 14.72404479980469 165.431640625 17.31985473632812 166.5309600830078 C 20.00491333007812 167.6680603027344 22.85940551757812 168.2446441650391 25.80409240722656 168.2446441650391 L 150.5239105224609 168.2446441650391 C 153.4685974121094 168.2446441650391 156.3230895996094 167.6680603027344 159.0081787109375 166.5309600830078 C 161.6039886474609 165.431640625 163.9361724853516 163.85693359375 165.9399871826172 161.8506164550781 C 167.9441223144531 159.8439331054688 169.5171966552734 157.5081634521484 170.6155090332031 154.9082183837891 C 171.7518615722656 152.2181701660156 172.3280487060547 149.3582763671875 172.3280487060547 146.407958984375 L 172.3280487060547 25.83668518066406 C 172.3280487060547 22.88636779785156 171.7518615722656 20.02647399902344 170.6155090332031 17.33642578125 C 169.5171966552734 14.73648071289062 167.9441223144531 12.40071105957031 165.9399871826172 10.39402770996094 C 163.9361724853516 8.387710571289062 161.6039886474609 6.813003540039062 159.0081787109375 5.71368408203125 C 156.3230895996094 4.576583862304688 153.4685974121094 4 150.5239105224609 4 L 25.80409240722656 4 M 25.80409240722656 0 L 150.5239105224609 0 C 164.775146484375 0 176.3280487060547 11.56747436523438 176.3280487060547 25.83668518066406 L 176.3280487060547 146.407958984375 C 176.3280487060547 160.6771697998047 164.775146484375 172.2446441650391 150.5239105224609 172.2446441650391 L 25.80409240722656 172.2446441650391 C 11.55288696289062 172.2446441650391 -1.52587890625e-05 160.6771697998047 -1.52587890625e-05 146.407958984375 L -1.52587890625e-05 25.83668518066406 C -1.52587890625e-05 11.56747436523438 11.55288696289062 0 25.80409240722656 0 Z" stroke="none" fill="#1780fa"/>
  </g>
  <g id="Group_4229" data-name="Group 4229" transform="translate(21.106 9.181)">
    <text id="Pay_Internet" data-name="Pay Internet" transform="translate(12.894 115.819)" fill="#f5f5f5" font-size="21" font-family="TTCommons-Medium, TT Commons" font-weight="500"><tspan x="0" y="0">Pay Internet</tspan></text>
    <g id="Group_150" data-name="Group 150" transform="translate(31.894 33.458)">
      <g id="Group_149" data-name="Group 149" transform="translate(0 0)">
        <path id="Path_1396" data-name="Path 1396" d="M33,57.07a25.493,25.493,0,0,1,36.159,0" transform="translate(-15.549 -25.037)" fill="none" stroke="#f5f5f5" stroke-linejoin="bevel" stroke-miterlimit="10" stroke-width="6"/>
        <path id="Path_1397" data-name="Path 1397" d="M50,56.1" transform="translate(-13.932 -25.311)" fill="none" stroke="#f5f5f5" stroke-linejoin="bevel" stroke-miterlimit="10" stroke-width="4"/>
        <path id="Path_1398" data-name="Path 1398" d="M16.1,40.634a51.308,51.308,0,0,1,72.424,0" transform="translate(-16.1 -25.675)" fill="none" stroke="#f5f5f5" stroke-linejoin="bevel" stroke-miterlimit="10" stroke-width="6"/>
        <path id="Path_1399" data-name="Path 1399" d="M50,71.2" transform="translate(-13.932 -24.305)" fill="none" stroke="#f5f5f5" stroke-linejoin="bevel" stroke-miterlimit="10" stroke-width="4"/>
        <g id="Group_148" data-name="Group 148" transform="translate(30.54 42.095)">
          <path id="Path_1400" data-name="Path 1400" d="M50.466,66.7A8.327,8.327,0,0,0,44.6,69.153l5.76,5.76,5.866-5.866a8.153,8.153,0,0,0-5.76-2.347Z" transform="translate(-44.6 -66.7)" fill="#f5f5f5"/>
        </g>
      </g>
    </g>
  </g>
</svg>
