<svg id="send_money" data-name="send money" xmlns="http://www.w3.org/2000/svg" width="176.328" height="172.245" viewBox="0 0 176.328 172.245">
  <g id="Path_1254" data-name="Path 1254" fill="none">
    <path d="M25.8,0h124.72a25.82,25.82,0,0,1,25.8,25.837V146.408a25.82,25.82,0,0,1-25.8,25.837H25.8A25.82,25.82,0,0,1,0,146.408V25.837A25.82,25.82,0,0,1,25.8,0Z" stroke="none"/>
    <path d="M 25.80409240722656 4 C 22.85940551757812 4 20.00491333007812 4.576583862304688 17.31985473632812 5.71368408203125 C 14.72404479980469 6.813003540039062 12.39186096191406 8.387710571289062 10.38804626464844 10.39402770996094 C 8.3839111328125 12.40071105957031 6.810836791992188 14.73648071289062 5.712509155273438 17.33642578125 C 4.576171875 20.02647399902344 3.999984741210938 22.88636779785156 3.999984741210938 25.83668518066406 L 3.999984741210938 146.407958984375 C 3.999984741210938 149.3582763671875 4.576171875 152.2181701660156 5.712509155273438 154.9082183837891 C 6.810836791992188 157.5081634521484 8.3839111328125 159.8439331054688 10.38804626464844 161.8506164550781 C 12.39186096191406 163.85693359375 14.72404479980469 165.431640625 17.31985473632812 166.5309600830078 C 20.00491333007812 167.6680603027344 22.85940551757812 168.2446441650391 25.80409240722656 168.2446441650391 L 150.5239105224609 168.2446441650391 C 153.4685974121094 168.2446441650391 156.3230895996094 167.6680603027344 159.0081787109375 166.5309600830078 C 161.6039886474609 165.431640625 163.9361724853516 163.85693359375 165.9399871826172 161.8506164550781 C 167.9441223144531 159.8439331054688 169.5171966552734 157.5081634521484 170.6155090332031 154.9082183837891 C 171.7518615722656 152.2181701660156 172.3280487060547 149.3582763671875 172.3280487060547 146.407958984375 L 172.3280487060547 25.83668518066406 C 172.3280487060547 22.88636779785156 171.7518615722656 20.02647399902344 170.6155090332031 17.33642578125 C 169.5171966552734 14.73648071289062 167.9441223144531 12.40071105957031 165.9399871826172 10.39402770996094 C 163.9361724853516 8.387710571289062 161.6039886474609 6.813003540039062 159.0081787109375 5.71368408203125 C 156.3230895996094 4.576583862304688 153.4685974121094 4 150.5239105224609 4 L 25.80409240722656 4 M 25.80409240722656 0 L 150.5239105224609 0 C 164.775146484375 0 176.3280487060547 11.56747436523438 176.3280487060547 25.83668518066406 L 176.3280487060547 146.407958984375 C 176.3280487060547 160.6771697998047 164.775146484375 172.2446441650391 150.5239105224609 172.2446441650391 L 25.80409240722656 172.2446441650391 C 11.55288696289062 172.2446441650391 -1.52587890625e-05 160.6771697998047 -1.52587890625e-05 146.407958984375 L -1.52587890625e-05 25.83668518066406 C -1.52587890625e-05 11.56747436523438 11.55288696289062 0 25.80409240722656 0 Z" stroke="none" fill="#1780fa"/>
  </g>
  <text id="Airtime_" data-name="Airtime " transform="translate(44.372 134)" fill="#fff" font-size="26" font-family="TTCommons-Medium, TT Commons" font-weight="500"><tspan x="0" y="0">Airtime </tspan></text>
  <g id="icons8-mobile-payment-500" transform="translate(66.661 30.168)">
    <path id="Path_1268" data-name="Path 1268" d="M13.336,69.4A3.84,3.84,0,0,1,9.5,65.563V6.336A3.84,3.84,0,0,1,13.336,2.5H45.8A3.84,3.84,0,0,1,49.64,6.336V65.561A3.84,3.84,0,0,1,45.8,69.4l-32.467,0Z" transform="translate(-8.544 -1.544)" fill="none"/>
    <path id="Path_1269" data-name="Path 1269" d="M46.259,3.911A2.884,2.884,0,0,1,49.14,6.792V66.019a2.884,2.884,0,0,1-2.881,2.88H13.792a2.884,2.884,0,0,1-2.881-2.88V6.792a2.884,2.884,0,0,1,2.881-2.881H46.259m0-1.911H13.792A4.791,4.791,0,0,0,9,6.792V66.019a4.791,4.791,0,0,0,4.792,4.792H46.259a4.791,4.791,0,0,0,4.792-4.792V6.792A4.791,4.791,0,0,0,46.259,2Z" transform="translate(-9 -2)" fill="#fff"/>
    <path id="Path_1270" data-name="Path 1270" d="M9.5,5.5H49.64V59.02H9.5Z" transform="translate(-8.544 1.19)" fill="none"/>
    <path id="Path_1271" data-name="Path 1271" d="M49.14,6.911V58.52H10.911V6.911H49.14M51.051,5H9V60.431H51.051V5ZM34.8,64.254H25.247a.956.956,0,1,1,0-1.911H34.8a.956.956,0,1,1,0,1.911Z" transform="translate(-9 0.734)" fill="#fff"/>
    <path id="Path_1272" data-name="Path 1272" d="M20.286,19.628c0-1.384,1.357-2.578,4.146-2.578a14.31,14.31,0,0,1,7.2,1.8V14.176A15.131,15.131,0,0,0,25.672,13l-2.762.069a9.232,9.232,0,0,0-5.56,2.223,6.034,6.034,0,0,0-2.1,4.628c0,7.156,13.128,7.378,13.128,11.3,0,1.4-1.911,2.475-4.043,2.475a16.991,16.991,0,0,1-8.573-2.233v4.794a16.608,16.608,0,0,0,7.151,1.592l2.762-.1a10.061,10.061,0,0,0,5.73-2.135,5.861,5.861,0,0,0,2-4.629C33.409,23.338,20.286,23.923,20.286,19.628Z" transform="translate(-3.305 8.025)" fill="#fff"/>
    <path id="Path_1273" data-name="Path 1273" d="M19,11h3.823v5.734H19Zm0,26.76h3.823v5.734H19Z" transform="translate(0.114 6.203)" fill="#fff"/>
  </g>
</svg>
