<svg id="send_money" data-name="send money" xmlns="http://www.w3.org/2000/svg" width="176.328" height="172.245" viewBox="0 0 176.328 172.245">
  <g id="Path_1254" data-name="Path 1254" fill="none">
    <path d="M25.8,0h124.72a25.82,25.82,0,0,1,25.8,25.837V146.408a25.82,25.82,0,0,1-25.8,25.837H25.8A25.82,25.82,0,0,1,0,146.408V25.837A25.82,25.82,0,0,1,25.8,0Z" stroke="none"/>
    <path d="M 25.80409240722656 4 C 22.85940551757812 4 20.00491333007812 4.576583862304688 17.31985473632812 5.71368408203125 C 14.72404479980469 6.813003540039062 12.39186096191406 8.387710571289062 10.38804626464844 10.39402770996094 C 8.3839111328125 12.40071105957031 6.810836791992188 14.73648071289062 5.712509155273438 17.33642578125 C 4.576171875 20.02647399902344 3.999984741210938 22.88636779785156 3.999984741210938 25.83668518066406 L 3.999984741210938 146.407958984375 C 3.999984741210938 149.3582763671875 4.576171875 152.2181701660156 5.712509155273438 154.9082183837891 C 6.810836791992188 157.5081634521484 8.3839111328125 159.8439331054688 10.38804626464844 161.8506164550781 C 12.39186096191406 163.85693359375 14.72404479980469 165.431640625 17.31985473632812 166.5309600830078 C 20.00491333007812 167.6680603027344 22.85940551757812 168.2446441650391 25.80409240722656 168.2446441650391 L 150.5239105224609 168.2446441650391 C 153.4685974121094 168.2446441650391 156.3230895996094 167.6680603027344 159.0081787109375 166.5309600830078 C 161.6039886474609 165.431640625 163.9361724853516 163.85693359375 165.9399871826172 161.8506164550781 C 167.9441223144531 159.8439331054688 169.5171966552734 157.5081634521484 170.6155090332031 154.9082183837891 C 171.7518615722656 152.2181701660156 172.3280487060547 149.3582763671875 172.3280487060547 146.407958984375 L 172.3280487060547 25.83668518066406 C 172.3280487060547 22.88636779785156 171.7518615722656 20.02647399902344 170.6155090332031 17.33642578125 C 169.5171966552734 14.73648071289062 167.9441223144531 12.40071105957031 165.9399871826172 10.39402770996094 C 163.9361724853516 8.387710571289062 161.6039886474609 6.813003540039062 159.0081787109375 5.71368408203125 C 156.3230895996094 4.576583862304688 153.4685974121094 4 150.5239105224609 4 L 25.80409240722656 4 M 25.80409240722656 0 L 150.5239105224609 0 C 164.775146484375 0 176.3280487060547 11.56747436523438 176.3280487060547 25.83668518066406 L 176.3280487060547 146.407958984375 C 176.3280487060547 160.6771697998047 164.775146484375 172.2446441650391 150.5239105224609 172.2446441650391 L 25.80409240722656 172.2446441650391 C 11.55288696289062 172.2446441650391 -1.52587890625e-05 160.6771697998047 -1.52587890625e-05 146.407958984375 L -1.52587890625e-05 25.83668518066406 C -1.52587890625e-05 11.56747436523438 11.55288696289062 0 25.80409240722656 0 Z" stroke="none" fill="#1780fa"/>
  </g>
  <g id="Analytics" transform="translate(6.67 -0.486)">
    <g id="Group_4228" data-name="Group 4228" transform="translate(33.506 27.864)">
      <g id="noun_gas_cylinder_4197729" data-name="noun_gas cylinder_4197729" transform="translate(25.564)">
        <g id="Group_4227" data-name="Group 4227" transform="translate(0)">
          <path id="Path_1393" data-name="Path 1393" d="M58.883,23.633V10.939A3.444,3.444,0,0,0,55.444,7.5H35.575a3.444,3.444,0,0,0-3.439,3.439V23.625c-.328.264-.64.552-.944.848a12.313,12.313,0,0,0-3.631,8.759V63.259a8.274,8.274,0,0,0,2.7,6.127v3.671a2.207,2.207,0,0,0,1.016,1.784,3.766,3.766,0,0,0,2.168.64H57.555a3.766,3.766,0,0,0,2.168-.64,2.207,2.207,0,0,0,1.016-1.784V69.386a8.274,8.274,0,0,0,2.7-6.127V33.24a12.28,12.28,0,0,0-3.631-8.759A9.33,9.33,0,0,0,58.883,23.633ZM33.391,10.939a2.186,2.186,0,0,1,2.184-2.184H55.444a2.186,2.186,0,0,1,2.184,2.184V22.722a12.274,12.274,0,0,0-6.559-1.872h-2.04l-.56-1.64a.63.63,0,0,0-.6-.424h-.52V17.57h.016A1.034,1.034,0,0,0,48.4,16.539v-2.08a1.034,1.034,0,0,0-1.032-1.032h-.016V11.579a.633.633,0,0,0-.632-.632H44.285a.633.633,0,0,0-.632.632v1.848h-.016a1.034,1.034,0,0,0-1.032,1.032v2.08a1.034,1.034,0,0,0,1.032,1.032h.016v1.216h-.52a.63.63,0,0,0-.6.424l-.56,1.64h-2.04a12.365,12.365,0,0,0-6.559,1.872V10.939Zm13.742,3.751v1.624H43.893V14.691Zm-2.208-1.264V12.211h1.168v1.216Zm1.168,4.143v1.216H44.925V17.57Zm-1.8,2.48h3.128l.272.808H43.318l.272-.808Zm15.2,53.016c0,.552-.792,1.16-1.928,1.16H33.455c-1.136,0-1.928-.616-1.928-1.16V70.338a8.248,8.248,0,0,0,4.335,1.224H55.156a8.269,8.269,0,0,0,4.335-1.224Zm2.7-9.8a7.025,7.025,0,0,1-2.312,5.207.61.61,0,0,0-.3.264,7.03,7.03,0,0,1-4.423,1.568H35.863a7.03,7.03,0,0,1-4.423-1.568.651.651,0,0,0-.3-.264,7.025,7.025,0,0,1-2.312-5.207V33.24A11.139,11.139,0,0,1,39.95,22.114H51.068A11.139,11.139,0,0,1,62.195,33.24Z" transform="translate(-27.56 -7.5)" fill="#f5f5f5"/>
          <path id="Path_1394" data-name="Path 1394" d="M53.2,56.531c-.56,1.272-3.287.736-1.728-1.392s.3-4.839.3-4.839a4.217,4.217,0,0,1-.4,1.04.475.475,0,0,1-.888-.184c-.208-2.5-3.743-3.975-3.743-3.975a3.085,3.085,0,0,1,.016,3.911c-.432.616-.992,1.136-1.472,1.712a7.651,7.651,0,0,0-1.776,3.735,3.939,3.939,0,0,0,1.128,3.631,4.722,4.722,0,0,0,2.824.928c.232.016.464.016.7.016a9.041,9.041,0,0,0,2.624-.368,4.745,4.745,0,0,0,2.184-1.384,4.276,4.276,0,0,0,.92-2.272,5.072,5.072,0,0,0-.192-2.376A5.206,5.206,0,0,1,53.2,56.531Z" transform="translate(-30.742 -15.441)" fill="#f5f5f5"/>
          <path id="Path_1395" data-name="Path 1395" d="M47.22,42.01a11.115,11.115,0,1,0,7.855,3.255A11.01,11.01,0,0,0,47.22,42.01Zm0,20.957a9.85,9.85,0,1,1,9.846-9.854A9.855,9.855,0,0,1,47.22,62.967Z" transform="translate(-29.271 -14.406)" fill="#f5f5f5"/>
        </g>
      </g>
      <g id="Group_4226" data-name="Group 4226" transform="translate(0 74.203)">
        <text id="Pay_Gas" data-name="Pay Gas" transform="translate(-0.176 27.419)" fill="#f5f5f5" font-size="25" font-family="TTCommons-Medium, TT Commons" font-weight="500"><tspan x="0" y="0">Pay Gas</tspan></text>
      </g>
    </g>
  </g>
</svg>
