<svg id="send_money" data-name="send money" xmlns="http://www.w3.org/2000/svg" width="176.328" height="172.245" viewBox="0 0 176.328 172.245">
  <g id="Path_1254" data-name="Path 1254" fill="none">
    <path d="M25.8,0h124.72a25.82,25.82,0,0,1,25.8,25.837V146.408a25.82,25.82,0,0,1-25.8,25.837H25.8A25.82,25.82,0,0,1,0,146.408V25.837A25.82,25.82,0,0,1,25.8,0Z" stroke="none"/>
    <path d="M 25.80409240722656 4 C 22.85940551757812 4 20.00491333007812 4.576583862304688 17.31985473632812 5.71368408203125 C 14.72404479980469 6.813003540039062 12.39186096191406 8.387710571289062 10.38804626464844 10.39402770996094 C 8.3839111328125 12.40071105957031 6.810836791992188 14.73648071289062 5.712509155273438 17.33642578125 C 4.576171875 20.02647399902344 3.999984741210938 22.88636779785156 3.999984741210938 25.83668518066406 L 3.999984741210938 146.407958984375 C 3.999984741210938 149.3582763671875 4.576171875 152.2181701660156 5.712509155273438 154.9082183837891 C 6.810836791992188 157.5081634521484 8.3839111328125 159.8439331054688 10.38804626464844 161.8506164550781 C 12.39186096191406 163.85693359375 14.72404479980469 165.431640625 17.31985473632812 166.5309600830078 C 20.00491333007812 167.6680603027344 22.85940551757812 168.2446441650391 25.80409240722656 168.2446441650391 L 150.5239105224609 168.2446441650391 C 153.4685974121094 168.2446441650391 156.3230895996094 167.6680603027344 159.0081787109375 166.5309600830078 C 161.6039886474609 165.431640625 163.9361724853516 163.85693359375 165.9399871826172 161.8506164550781 C 167.9441223144531 159.8439331054688 169.5171966552734 157.5081634521484 170.6155090332031 154.9082183837891 C 171.7518615722656 152.2181701660156 172.3280487060547 149.3582763671875 172.3280487060547 146.407958984375 L 172.3280487060547 25.83668518066406 C 172.3280487060547 22.88636779785156 171.7518615722656 20.02647399902344 170.6155090332031 17.33642578125 C 169.5171966552734 14.73648071289062 167.9441223144531 12.40071105957031 165.9399871826172 10.39402770996094 C 163.9361724853516 8.387710571289062 161.6039886474609 6.813003540039062 159.0081787109375 5.71368408203125 C 156.3230895996094 4.576583862304688 153.4685974121094 4 150.5239105224609 4 L 25.80409240722656 4 M 25.80409240722656 0 L 150.5239105224609 0 C 164.775146484375 0 176.3280487060547 11.56747436523438 176.3280487060547 25.83668518066406 L 176.3280487060547 146.407958984375 C 176.3280487060547 160.6771697998047 164.775146484375 172.2446441650391 150.5239105224609 172.2446441650391 L 25.80409240722656 172.2446441650391 C 11.55288696289062 172.2446441650391 -1.52587890625e-05 160.6771697998047 -1.52587890625e-05 146.407958984375 L -1.52587890625e-05 25.83668518066406 C -1.52587890625e-05 11.56747436523438 11.55288696289062 0 25.80409240722656 0 Z" stroke="none" fill="#1780fa"/>
  </g>
  <g id="Group_4225" data-name="Group 4225">
    <text id="Pay_TV" data-name="Pay TV" transform="translate(48.164 136.456)" fill="#f5f5f5" font-size="27" font-family="TTCommons-Medium, TT Commons" font-weight="500"><tspan x="0" y="0">Pay TV</tspan></text>
    <g id="noun_square_tv_3391000" data-name="noun_square tv_3391000" transform="translate(54.694 28.789)">
      <path id="Path_1388" data-name="Path 1388" d="M21.879,60.434H57.426a3.329,3.329,0,0,0,3.329-3.329V31.2a3.329,3.329,0,0,0-3.329-3.329H21.879A3.329,3.329,0,0,0,18.55,31.2V57.106A3.329,3.329,0,0,0,21.879,60.434Zm-2.151-29.2a2.151,2.151,0,0,1,2.151-2.151H57.426a2.151,2.151,0,0,1,2.151,2.151V57.137a2.151,2.151,0,0,1-2.151,2.151H21.879a2.151,2.151,0,0,1-2.151-2.151Z" transform="translate(-10.338 -9.272)" fill="#f5f5f5" stroke="#fff" stroke-width="1"/>
      <path id="Path_1389" data-name="Path 1389" d="M77.99,37.662a3.674,3.674,0,1,0-2.605-1.068A3.666,3.666,0,0,0,77.99,37.662Zm0-6.155a2.489,2.489,0,1,1-1.775.72,2.489,2.489,0,0,1,1.775-.72Z" transform="translate(-22.321 -9.801)" fill="#f5f5f5" stroke="#fff" stroke-width="1"/>
      <path id="Path_1390" data-name="Path 1390" d="M78,50.932a3.666,3.666,0,1,0-3.666-3.666A3.666,3.666,0,0,0,78,50.932Zm0-6.155a2.489,2.489,0,1,1-2.489,2.489A2.489,2.489,0,0,1,78,44.778Z" transform="translate(-22.327 -12.653)" fill="#f5f5f5" stroke="#fff" stroke-width="1"/>
      <path id="Path_1391" data-name="Path 1391" d="M78,64.192a3.666,3.666,0,1,0-3.666-3.666A3.666,3.666,0,0,0,78,64.192Zm0-6.155a2.489,2.489,0,1,1-2.489,2.489A2.489,2.489,0,0,1,78,58.038Z" transform="translate(-22.327 -15.503)" fill="#f5f5f5" stroke="#fff" stroke-width="1"/>
      <path id="Path_1392" data-name="Path 1392" d="M8.09,58.82V69.591a.6.6,0,0,0,.589.589h3.007v5.3a.589.589,0,0,0,.589.589H17.44a.581.581,0,0,0,.487-.259l3.753-5.629H60.344L64.1,75.809a.581.581,0,0,0,.487.259h5.166a.589.589,0,0,0,.589-.589v-5.3h2.968a.6.6,0,0,0,.589-.589V58.82a.6.6,0,0,0-.589-.589h-4.71a4.844,4.844,0,0,0,1.7-3.69V23.61a4.867,4.867,0,0,0-4.86-4.867H46.589a5.605,5.605,0,0,0-1.672-3.454l5.221-6.6a2.269,2.269,0,0,0,.926.2,2.355,2.355,0,1,0-1.821-.926l-5.221,6.595a5.707,5.707,0,0,0-6.061,0L32.741,7.964a2.355,2.355,0,1,0-.926.73l5.252,6.595a5.605,5.605,0,0,0-1.672,3.454H16.553a4.867,4.867,0,0,0-4.86,4.867V54.542a4.844,4.844,0,0,0,1.688,3.666H8.671a.6.6,0,0,0-.581.612ZM51.1,5.436a.477.477,0,1,1,0-.024ZM31.7,7.375a1.115,1.115,0,0,1-.785.338,1.154,1.154,0,1,1,0-2.3,1.115,1.115,0,0,1,.785.338A1.154,1.154,0,0,1,31.7,7.375ZM17.126,74.891H12.863V70.18h7.4Zm52.034,0H64.9l-3.14-4.71h7.4ZM40.992,14.841a4.506,4.506,0,0,1,4.443,3.925H36.548a4.506,4.506,0,0,1,4.443-3.925Zm-28.129,39.7V23.61a3.69,3.69,0,0,1,3.682-3.69H65.439a3.69,3.69,0,0,1,3.682,3.69V54.542a3.69,3.69,0,0,1-3.682,3.666H16.545A3.69,3.69,0,0,1,12.863,54.542Zm-3.6,4.867H72.716V69H9.268Z" transform="translate(-8.09 -4.181)" fill="#f5f5f5" stroke="#fff" stroke-width="1"/>
    </g>
  </g>
</svg>
