<svg id="send_money" data-name="send money" xmlns="http://www.w3.org/2000/svg" width="176.328" height="172.245" viewBox="0 0 176.328 172.245">
  <g id="Path_1254" data-name="Path 1254" fill="none">
    <path d="M25.8,0h124.72a25.82,25.82,0,0,1,25.8,25.837V146.408a25.82,25.82,0,0,1-25.8,25.837H25.8A25.82,25.82,0,0,1,0,146.408V25.837A25.82,25.82,0,0,1,25.8,0Z" stroke="none"/>
    <path d="M 25.80409240722656 4 C 22.85940551757812 4 20.00491333007812 4.576583862304688 17.31985473632812 5.71368408203125 C 14.72404479980469 6.813003540039062 12.39186096191406 8.387710571289062 10.38804626464844 10.39402770996094 C 8.3839111328125 12.40071105957031 6.810836791992188 14.73648071289062 5.712509155273438 17.33642578125 C 4.576171875 20.02647399902344 3.999984741210938 22.88636779785156 3.999984741210938 25.83668518066406 L 3.999984741210938 146.407958984375 C 3.999984741210938 149.3582763671875 4.576171875 152.2181701660156 5.712509155273438 154.9082183837891 C 6.810836791992188 157.5081634521484 8.3839111328125 159.8439331054688 10.38804626464844 161.8506164550781 C 12.39186096191406 163.85693359375 14.72404479980469 165.431640625 17.31985473632812 166.5309600830078 C 20.00491333007812 167.6680603027344 22.85940551757812 168.2446441650391 25.80409240722656 168.2446441650391 L 150.5239105224609 168.2446441650391 C 153.4685974121094 168.2446441650391 156.3230895996094 167.6680603027344 159.0081787109375 166.5309600830078 C 161.6039886474609 165.431640625 163.9361724853516 163.85693359375 165.9399871826172 161.8506164550781 C 167.9441223144531 159.8439331054688 169.5171966552734 157.5081634521484 170.6155090332031 154.9082183837891 C 171.7518615722656 152.2181701660156 172.3280487060547 149.3582763671875 172.3280487060547 146.407958984375 L 172.3280487060547 25.83668518066406 C 172.3280487060547 22.88636779785156 171.7518615722656 20.02647399902344 170.6155090332031 17.33642578125 C 169.5171966552734 14.73648071289062 167.9441223144531 12.40071105957031 165.9399871826172 10.39402770996094 C 163.9361724853516 8.387710571289062 161.6039886474609 6.813003540039062 159.0081787109375 5.71368408203125 C 156.3230895996094 4.576583862304688 153.4685974121094 4 150.5239105224609 4 L 25.80409240722656 4 M 25.80409240722656 0 L 150.5239105224609 0 C 164.775146484375 0 176.3280487060547 11.56747436523438 176.3280487060547 25.83668518066406 L 176.3280487060547 146.407958984375 C 176.3280487060547 160.6771697998047 164.775146484375 172.2446441650391 150.5239105224609 172.2446441650391 L 25.80409240722656 172.2446441650391 C 11.55288696289062 172.2446441650391 -1.52587890625e-05 160.6771697998047 -1.52587890625e-05 146.407958984375 L -1.52587890625e-05 25.83668518066406 C -1.52587890625e-05 11.56747436523438 11.55288696289062 0 25.80409240722656 0 Z" stroke="none" fill="#1780fa"/>
  </g>
  <text id="Electricity" transform="translate(37.664 129)" fill="#f5f5f5" font-size="24" font-family="TTCommons-Medium, TT Commons" font-weight="500"><tspan x="0" y="0">Electricity</tspan></text>
  <g id="noun_Light_Bulb_57310" data-name="noun_Light Bulb_57310" transform="translate(65.807 28.082)">
    <g id="Group_146" data-name="Group 146" transform="translate(0 0)">
      <path id="Path_1386" data-name="Path 1386" d="M40.94,42.659l14.879-25.79a1.587,1.587,0,0,0-.534-2.136,1.472,1.472,0,0,0-.763-.229,1.7,1.7,0,0,0-1.373.763L38.27,41.056ZM63.678,12.52a7.866,7.866,0,0,0-3.2-.992,8.269,8.269,0,0,0-2.289-1.984,7.9,7.9,0,0,0-3.128-.992,7.184,7.184,0,0,0-2.289-1.984A7.372,7.372,0,0,0,48.952,5.5a7.692,7.692,0,0,0-6.715,3.891L27.358,35.181h-.534a4.267,4.267,0,0,0-3.815,2.213l-3.815,6.638a4.6,4.6,0,0,0-.61,2.213A4.474,4.474,0,0,0,20.8,50.136l.992.534-.382,4.96a3.075,3.075,0,0,0-1.679,1.831l-.229.305a2.6,2.6,0,0,0-.153,1.068,1.3,1.3,0,0,0,.076.534,2.864,2.864,0,0,0-1.221,1.45l-.153.382a2.254,2.254,0,0,0-.153.992v.458a2.435,2.435,0,0,0-1.068,1.373l-.076.305a3.83,3.83,0,0,0-.153.916,3.372,3.372,0,0,0,1.908,2.976l.763.382a7.2,7.2,0,0,0,3.052,3.2,7,7,0,0,0,5.036.916l.61.305a4.158,4.158,0,0,0,1.679.381h0a2.979,2.979,0,0,0,2.518-1.3h0l.153-.305a2.572,2.572,0,0,0,.382-1.3,3.464,3.464,0,0,0,1.45-1.145h0l.229-.305a2.7,2.7,0,0,0,.458-1.45,3.368,3.368,0,0,0,1.679-1.3l.229-.382A3.371,3.371,0,0,0,37.2,64.71l4.044-2.747.916.534a4.6,4.6,0,0,0,2.213.61,4.267,4.267,0,0,0,3.815-2.213L52,54.257a4.6,4.6,0,0,0,.61-2.213,4.537,4.537,0,0,0-1.221-3.052L66.5,23.126A7.753,7.753,0,0,0,63.678,12.52Zm-9.232-1.068a4.433,4.433,0,0,1,2.136.534c.076,0,.153.076.229.076a4.625,4.625,0,0,1,1.679,6.333L43.611,44.185,35.523,39.53,50.4,13.817A4.706,4.706,0,0,1,54.445,11.452ZM30.182,36.4,44.908,10.917a4.615,4.615,0,0,1,4.044-2.365,5.45,5.45,0,0,1,2.365.61h0a7.63,7.63,0,0,0-3.128,2.671,1.783,1.783,0,0,0-.534.534L32.852,38l-3.815-2.213Zm.534,34.336-.153.305h0a1.041,1.041,0,0,1-.916.382,2.711,2.711,0,0,1-.763-.153l-9.461-4.807a1.478,1.478,0,0,1-.839-1.221.28.28,0,0,1,.076-.229l.076-.305c.076-.305.305-.458.763-.458a2.359,2.359,0,0,1,.61.153l.153.076h.076l9.919,4.96a1.119,1.119,0,0,1,.687.916C30.868,70.509,30.792,70.585,30.716,70.738Zm2.136-2.747-.229.305h0a1.188,1.188,0,0,1-1.068.458,2.711,2.711,0,0,1-.763-.153l-.153-.076h-.076l-9.919-4.96a1.589,1.589,0,0,1-.839-1.3c0-.153,0-.229.076-.305l.153-.382a.92.92,0,0,1,.916-.61,1.8,1.8,0,0,1,.61.153l.153.076a.075.075,0,0,1,.076.076l10.53,5.265a1.219,1.219,0,0,1,.687.992A1.085,1.085,0,0,1,32.852,67.991Zm2.442-3.51c0,.076-.076.153-.076.229v.076l-.229.382a1.483,1.483,0,0,1-1.221.61A2.711,2.711,0,0,1,33,65.625l-.153-.076a.075.075,0,0,1-.076-.076L22.323,60.208a1.607,1.607,0,0,1-.839-1.373.572.572,0,0,1,.076-.382l.153-.382a1.1,1.1,0,0,1,.839-.687h.229a1.8,1.8,0,0,1,.61.153l11.14,5.57a1.208,1.208,0,0,1,.763,1.145A.143.143,0,0,1,35.294,64.481ZM49.562,52.73l-3.815,6.638a1.259,1.259,0,0,1-1.145.687,2.228,2.228,0,0,1-.687-.153l-1.831-1.068a1.5,1.5,0,0,0-1.679.076l-4.273,2.9-.153-.153a1.23,1.23,0,0,0-.534-.305l-.229-.153L24.535,55.02l.382-5.112a1.439,1.439,0,0,0-.763-1.45L22.4,47.389a1.259,1.259,0,0,1-.687-1.145,2.228,2.228,0,0,1,.153-.687L25.68,38.92a1.259,1.259,0,0,1,1.145-.687,2.228,2.228,0,0,1,.687.153L49.028,50.9a1.259,1.259,0,0,1,.687,1.145A2.228,2.228,0,0,1,49.562,52.73ZM63.83,21.6l-14.8,25.714-2.671-1.526L61.16,20a1.472,1.472,0,0,0,.229-.763,7.693,7.693,0,0,0,.61-4.12.266.266,0,0,1,.153.076A4.714,4.714,0,0,1,63.83,21.6Z" transform="translate(-16.6 -5.5)" fill="#f5f5f5"/>
    </g>
  </g>
</svg>
