<svg id="send_money" data-name="send money" xmlns="http://www.w3.org/2000/svg" width="176.328" height="172.245" viewBox="0 0 176.328 172.245">
  <g id="Path_1254" data-name="Path 1254" fill="none">
    <path d="M25.8,0h124.72a25.82,25.82,0,0,1,25.8,25.837V146.408a25.82,25.82,0,0,1-25.8,25.837H25.8A25.82,25.82,0,0,1,0,146.408V25.837A25.82,25.82,0,0,1,25.8,0Z" stroke="none"/>
    <path d="M 25.80409240722656 4 C 22.85940551757812 4 20.00491333007812 4.576583862304688 17.31985473632812 5.71368408203125 C 14.72404479980469 6.813003540039062 12.39186096191406 8.387710571289062 10.38804626464844 10.39402770996094 C 8.3839111328125 12.40071105957031 6.810836791992188 14.73648071289062 5.712509155273438 17.33642578125 C 4.576171875 20.02647399902344 3.999984741210938 22.88636779785156 3.999984741210938 25.83668518066406 L 3.999984741210938 146.407958984375 C 3.999984741210938 149.3582763671875 4.576171875 152.2181701660156 5.712509155273438 154.9082183837891 C 6.810836791992188 157.5081634521484 8.3839111328125 159.8439331054688 10.38804626464844 161.8506164550781 C 12.39186096191406 163.85693359375 14.72404479980469 165.431640625 17.31985473632812 166.5309600830078 C 20.00491333007812 167.6680603027344 22.85940551757812 168.2446441650391 25.80409240722656 168.2446441650391 L 150.5239105224609 168.2446441650391 C 153.4685974121094 168.2446441650391 156.3230895996094 167.6680603027344 159.0081787109375 166.5309600830078 C 161.6039886474609 165.431640625 163.9361724853516 163.85693359375 165.9399871826172 161.8506164550781 C 167.9441223144531 159.8439331054688 169.5171966552734 157.5081634521484 170.6155090332031 154.9082183837891 C 171.7518615722656 152.2181701660156 172.3280487060547 149.3582763671875 172.3280487060547 146.407958984375 L 172.3280487060547 25.83668518066406 C 172.3280487060547 22.88636779785156 171.7518615722656 20.02647399902344 170.6155090332031 17.33642578125 C 169.5171966552734 14.73648071289062 167.9441223144531 12.40071105957031 165.9399871826172 10.39402770996094 C 163.9361724853516 8.387710571289062 161.6039886474609 6.813003540039062 159.0081787109375 5.71368408203125 C 156.3230895996094 4.576583862304688 153.4685974121094 4 150.5239105224609 4 L 25.80409240722656 4 M 25.80409240722656 0 L 150.5239105224609 0 C 164.775146484375 0 176.3280487060547 11.56747436523438 176.3280487060547 25.83668518066406 L 176.3280487060547 146.407958984375 C 176.3280487060547 160.6771697998047 164.775146484375 172.2446441650391 150.5239105224609 172.2446441650391 L 25.80409240722656 172.2446441650391 C 11.55288696289062 172.2446441650391 -1.52587890625e-05 160.6771697998047 -1.52587890625e-05 146.407958984375 L -1.52587890625e-05 25.83668518066406 C -1.52587890625e-05 11.56747436523438 11.55288696289062 0 25.80409240722656 0 Z" stroke="none" fill="#1780fa"/>
  </g>
  <text id="Water" transform="translate(57.372 132)" fill="#f5f5f5" font-size="24" font-family="TTCommons-Medium, TT Commons" font-weight="500"><tspan x="0" y="0">Water</tspan></text>
  <g id="noun_water_tap_1088837" data-name="noun_water tap_1088837" transform="translate(63.62 30.326)" style="isolation: isolate">
    <path id="Path_1387" data-name="Path 1387" d="M24.127,5a4.485,4.485,0,1,0,4.008,6.537H42.4a4.456,4.456,0,0,0,3.984,2.433A4.485,4.485,0,1,0,42.4,7.433H28.135A4.492,4.492,0,0,0,24.127,5Zm-.024.954a3.558,3.558,0,0,1,3.268,2.171l.119.286h15.53l.119-.286a3.522,3.522,0,0,1,6.775,1.384,3.528,3.528,0,0,1-6.775,1.36l-.119-.286H27.491l-.119.286A3.536,3.536,0,0,1,24.1,13.016,3.5,3.5,0,0,1,20.6,9.509,3.537,3.537,0,0,1,24.1,5.954Zm13.121,5.988v7.8l.358.1A8.732,8.732,0,0,1,42.4,23.274l.143.191h.406a22.447,22.447,0,0,1,22.4,22.377v.5h.573a1.713,1.713,0,0,1,1.718,1.718A1.734,1.734,0,0,1,65.923,49.8h-10.5a1.754,1.754,0,0,1-1.741-1.742,1.734,1.734,0,0,1,1.741-1.718h.549v-.5A12.908,12.908,0,0,0,42.926,32.864H42.52l-.119.191a8.611,8.611,0,0,1-14.242,0l-.143-.191h-7.4l-.143.215a9.163,9.163,0,0,1-3.411,3.149l-.262.143v.286a.573.573,0,1,1-1.145,0V19.672a.571.571,0,0,1,.573-.573.555.555,0,0,1,.573.573v.286l.262.143a9.192,9.192,0,0,1,3.411,3.173l.143.215h7.372l.143-.215a8.771,8.771,0,0,1,4.819-3.435l.334-.1V11.966h-.954v7.061a9.748,9.748,0,0,0-4.843,3.507h-6.37a10.357,10.357,0,0,0-3.411-3.149,1.512,1.512,0,0,0-1.5-1.241A1.552,1.552,0,0,0,14.656,19.7V36.657a1.535,1.535,0,0,0,1.551,1.551,1.512,1.512,0,0,0,1.5-1.241,9.979,9.979,0,0,0,3.411-3.149h6.37a9.593,9.593,0,0,0,15.53,0A11.944,11.944,0,0,1,55,45.389a2.714,2.714,0,0,0,.429,5.392h10.5a2.715,2.715,0,0,0,2.7-2.72A2.744,2.744,0,0,0,66.3,45.389,23.4,23.4,0,0,0,43.045,22.51,9.6,9.6,0,0,0,38.2,19.027V11.942Zm23.451,39.7-.453,1.288a21.433,21.433,0,0,1-3.2,5.248c-1.9,2.539-3.849,5.17-3.7,8.04v.024a7.348,7.348,0,1,0,14.7.024v-.024c.152-2.87-1.784-5.477-3.674-8.016a21.419,21.419,0,0,1-3.221-5.272Zm-.024,2.7a30.464,30.464,0,0,0,2.91,4.461c1.863,2.511,3.621,4.871,3.483,7.4v.072a6.394,6.394,0,1,1-12.787-.024v-.048c-.138-2.539,1.631-4.918,3.507-7.443A28.806,28.806,0,0,0,60.651,54.335Z" transform="translate(-14.656 -5)" fill="#f5f5f5" stroke="#fff" stroke-width="2"/>
  </g>
</svg>
