<svg id="Group_116" data-name="Group 116" xmlns="http://www.w3.org/2000/svg" width="72.651" height="72.65" viewBox="0 0 72.651 72.65">
  <ellipse id="Ellipse_30" data-name="Ellipse 30" cx="36.325" cy="36.325" rx="36.325" ry="36.325" fill="#78430a"/>
  <path id="Path_426" data-name="Path 426" d="M4127.922,454.178a19.228,19.228,0,0,1-4.708,1.342c.756-.128,1.868-1.5,2.314-2.052a8.607,8.607,0,0,0,1.562-2.849c.041-.081.071-.183-.009-.244a.27.27,0,0,0-.25.021,24,24,0,0,1-5.582,2.136.374.374,0,0,1-.385-.1,4.488,4.488,0,0,0-.487-.5,9.885,9.885,0,0,0-2.7-1.657,9.417,9.417,0,0,0-4.146-.668,9.924,9.924,0,0,0-3.935,1.111,10.166,10.166,0,0,0-3.173,2.593,9.742,9.742,0,0,0-1.895,3.8,10.28,10.28,0,0,0-.1,4.007c.03.224.009.254-.192.224-7.666-1.141-14.021-3.884-19.179-9.762-.224-.255-.345-.255-.529.019-2.258,3.384-1.162,8.819,1.658,11.491.375.357.762.712,1.178,1.037a9.776,9.776,0,0,1-3.7-1.037c-.224-.142-.336-.06-.356.194a5.774,5.774,0,0,0,.062,1.1,9.831,9.831,0,0,0,6.061,7.84,5.749,5.749,0,0,0,1.23.376,10.959,10.959,0,0,1-3.629.112c-.265-.051-.366.082-.265.335,1.6,4.353,5.044,5.649,7.626,6.386.345.061.691.061,1.038.142-.021.031-.042.031-.062.061-.856,1.306-3.825,2.277-5.208,2.76a18.647,18.647,0,0,1-7.91,1.013c-.425-.063-.515-.058-.63,0s-.015.174.122.284c.539.356,1.088.672,1.647.977a26.1,26.1,0,0,0,5.287,2.115c9.5,2.624,20.205.7,27.34-6.393,5.6-5.567,7.568-13.244,7.568-20.931,0-.3.355-.467.566-.626a18.5,18.5,0,0,0,3.721-3.87,1.178,1.178,0,0,0,.247-.741v-.04C4128.113,454.055,4128.11,454.092,4127.922,454.178Z" transform="translate(-4068.513 -432.417)" fill="#f2f3f4"/>
</svg>
